<?xml version="1.0" encoding="UTF-8"?>
<svg width="80px" height="106px" viewBox="0 0 80 106" version="1.1" xmlns="http://www.w3.org/2000/svg" xmlns:xlink="http://www.w3.org/1999/xlink">
    <!-- Generator: Sketch 63.1 (92452) - https://sketch.com -->
    <title>Character</title>
    <desc>Created with Sketch.</desc>
    <defs>
        <rect id="path-1" x="0.253333333" y="4.54747351e-13" width="93" height="111" rx="8"></rect>
    </defs>
    <g id="Page-1" stroke="none" stroke-width="1" fill="none" fill-rule="evenodd">
        <g id="Galaxy-S10" transform="translate(-8.000000, -10.000000)">
            <g id="Character" transform="translate(-0.253333, 5.000000)">
                <mask id="mask-2" fill="white">
                    <use xlink:href="#path-1"></use>
                </mask>
                <g id="Rectangle"></g>
                <path d="M48.0595033,5 C52.9844524,5.11535502 58.5791919,6.60092286 62.3479948,9.38677312 C68.9951274,14.3002474 71.1111195,22.3884682 73.3664905,32.0191098 C74.4101656,36.4756987 79.0607727,57.1359954 87.3183117,94 L87.3183117,94 L48.0027418,94 C47.8967274,90.1060969 47.7976771,86.3373938 47.7055907,82.6938908 C47.6819159,86.3370592 47.6568455,90.1058592 47.6306133,94 L8.31831169,94 C16.5751642,57.1359954 21.2253847,36.4756987 22.2689731,32.0191098 C24.5241566,22.3884682 26.6399728,14.3002474 33.2865529,9.38677312 C37.0547323,6.60115216 42.5604824,5.11559958 47.4782696,5.0064829 C47.5752754,5 47.6720571,5.00054186 47.7691212,5.00162498 L48.0595033,5 L48.0595033,5 Z" id="Combined-Shape" fill="#D8D8D8" mask="url(#mask-2)"></path>
                <path d="M47.8181746,6 C59.6922967,6 69.3181746,19.8048417 69.3181746,36.8339768 C69.3181746,51.2008905 62.4667303,63.2728378 53.1941074,66.6962043 L53.1931746,71 C53.1931746,71.5522847 52.7454594,72 52.1931746,72 L43.4431746,72 C42.8908899,72 42.4431746,71.5522847 42.4431746,71 L42.443241,66.6965731 C33.170111,63.273705 26.3181746,51.2014066 26.3181746,36.8339768 C26.3181746,19.8048417 35.9440525,6 47.8181746,6 Z" id="Combined-Shape" fill="#FFC6A2" mask="url(#mask-2)"></path>
                <path d="M47.2533333,58 C50.0147571,58 52.2533333,55.8117949 52.2533333,53.1125072 C52.2533333,50.4132194 50.0780049,51.0705003 47.3165812,51.0705003 C44.5551574,51.0705003 42.2533333,50.4132194 42.2533333,53.1125072 C42.2533333,55.8117949 44.4919096,58 47.2533333,58 Z" id="Oval" fill="#FF5252" mask="url(#mask-2)"></path>
                <circle id="Oval" fill="#333435" mask="url(#mask-2)" cx="57.7533333" cy="39.5" r="2.5"></circle>
                <circle id="Oval-Copy-4" fill="#333435" mask="url(#mask-2)" cx="36.7533333" cy="39.5" r="2.5"></circle>
                <path d="M47.8512576,183 C57.6581918,183 66.4768598,178.89842 72.58124,172.368379 C77.9463172,166.629192 80.1764837,106.385195 80.1764837,98.030165 C80.1764837,94.2417182 80.6061159,89.3737366 79.4337046,86.0548121 C75.9727589,76.2573824 67.5989256,68.8697539 55.4661347,66.0411898 C52.7108893,65.3988488 50.8320975,74.5335267 47.8512576,74.5335267 C44.7387727,74.5335267 42.7734256,65.3108965 39.91161,66.0411898 C26.7170063,69.4082589 18.8026247,76.9528731 15.8337085,86.9876267 C14.9333001,90.0309515 15.3492661,95.96581 15.3492661,99.4201401 C15.3492661,106.698679 16.9682235,164.65461 21.1544329,170.059016 C27.24109,177.916906 36.9337939,183 47.8512576,183 Z" id="Shirt-Grey" fill="#E3E1E2" mask="url(#mask-2)"></path>
                <path d="M47.9069276,183 C57.8243458,183 65.0801818,179.708156 71.2533333,173.178115 C71.2533333,158.205323 71.2533333,92.3848267 71.2533333,73.6364328 C67.1289666,70.1097565 61.8621919,67.4831039 55.6075932,66.0411898 C52.8213075,65.3988488 50.9213494,74.5335267 47.9069276,74.5335267 C44.7593778,74.5335267 42.7718892,65.3108965 39.8778327,66.0411898 C33.4389242,67.6659997 28.2434379,70.2636067 24.2533333,73.6443964 C24.2533333,97.2375682 25.5962677,159.768389 25.5962677,173.178115 C31.7514966,181.036004 36.8664688,183 47.9069276,183 Z" id="Shirt-White" fill="#FFFFFF" mask="url(#mask-2)"></path>
                <path d="M44.7795363,183 L49.9861267,183 C49.9861267,115.56596 49.9861267,79.9149871 49.9861267,76.0470802 C54.180584,74.9588064 57.2533333,71.4278203 57.2533333,67.2399337 C57.2533333,66.7263174 57.1533909,65.9818305 56.9535061,65.0064731 L53.2460358,66.5320379 C52.2372317,69.1727996 50.2396642,70.4931805 47.2533333,70.4931805 C44.2670025,70.4931805 42.3693357,69.2685524 41.5603329,66.8192963 L37.5549367,65 C37.3538678,65.9781223 37.2533333,66.7247668 37.2533333,67.2399337 C37.2533333,71.5135533 40.4531791,75.1031015 44.7795363,76.1108301 C44.7795363,79.7351834 44.7795363,115.364907 44.7795363,183 Z" id="Shirt-F" fill="#D8D8D8" mask="url(#mask-2)"></path>
                <path d="M34.3756514,25.4377029 C31.9805505,30.6261064 24.8010027,53.4802054 12.8370082,94 L8.31831169,94 C16.5586425,57.1359954 21.199558,36.4756987 22.2410582,32.0191098 C24.4917292,22.3884682 26.6033116,14.3002474 33.2365921,9.38677312 C37.0145394,6.58833171 42.6311262,5.10195299 47.5621465,5.00506379 C47.6470268,5 47.7324711,5.00042441 47.8181379,5.00127283 L48.0748052,5 L48.0748052,5 C53.0054972,5.10195299 58.622084,6.58833171 62.4000313,9.38677312 C69.0333117,14.3002474 71.1448942,22.3884682 73.3955652,32.0191098 C74.4370654,36.4756987 79.0779809,57.1359954 87.3183117,94 L87.3183117,94 L82.7996152,94 C70.8356207,53.4802054 63.6560729,30.6261064 61.260972,25.4377029 C56.3687819,24.2870734 52.4488731,24.1810762 47.7749605,24.1810762 L47.8616629,24.1810762 C43.1877503,24.1810762 39.2678415,24.2870734 34.3756514,25.4377029 Z" id="Combined-Shape-Copy" fill="#FFFFFF" mask="url(#mask-2)"></path>
                <rect id="Rectangle" fill="#3E3E3E" mask="url(#mask-2)" x="52.2533333" y="31" width="11" height="3" rx="1.5"></rect>
                <rect id="Rectangle-Copy-2" fill="#3E3E3E" mask="url(#mask-2)" x="32.2533333" y="31" width="11" height="3" rx="1.5"></rect>
                <path d="M27.2533333,47 L29.288092,47 L29.288092,47 C29.288092,48.7386428 29.5239932,50.1832825 30.9297093,52.4062427 C37.3112374,58.2475708 41.7083455,59.7873542 47.2881685,59.8454921 L47.6244025,59.8472249 C53.4380394,59.8472249 57.9388679,58.3643974 64.5304209,52.4062427 C65.953931,50.1832825 66.1928182,48.7386428 66.1928182,47 L66.1928182,47 L68.2533333,47 C68.2533333,56.7228806 61.4844189,67.479803 47.6244025,68 L47.6244025,68 C33.9376363,67.479803 27.2533333,56.7228806 27.2533333,47 Z" id="Combined-Shape" fill="#3E3E3E" mask="url(#mask-2)"></path>
                <rect id="Rectangle" fill="#FFB08B" mask="url(#mask-2)" x="46.2533333" y="43" width="3" height="6" rx="1.5"></rect>
                <path d="M47.2533333,52 L59.2533333,52 C57.7725175,50 56.1020262,49 54.2418594,49 C52.3816926,49 50.0739355,49 47.318588,49 L47.2533333,52 Z" id="Path-6" fill="#3E3E3E" mask="url(#mask-2)"></path>
                <path d="M36.2533333,52 L48.2533333,52 C46.7725175,50 45.1020262,49 43.2418594,49 C41.3816926,49 39.0739355,49 36.318588,49 L36.2533333,52 Z" id="Path-6-Copy" fill="#3E3E3E" mask="url(#mask-2)" transform="translate(42.253333, 50.500000) scale(-1, 1) translate(-42.253333, -50.500000) "></path>
                <path d="M26.0363174,17.0602683 C33.5256502,15.6867561 40.9521563,15 48.3158357,15 C55.4299412,15 62.4818814,15.6795264 69.4716563,17.0385793 C70.5063421,17.2397232 71.2533333,18.1459442 71.2533333,19.2 C71.2533333,20.0124172 70.594739,20.6710115 69.7823218,20.6710115 C69.6878569,20.6710115 69.5936117,20.6619121 69.5008879,20.6438593 C62.5103876,19.2812864 55.4553506,18.6 48.3357767,18.6 C40.959607,18.6 33.5182279,19.2883859 26.0116396,20.6651576 C25.20246,20.813555 24.4261822,20.2778972 24.2777723,19.46872 C24.2615132,19.3800705 24.2533333,19.2901282 24.2533333,19.2 C24.2533333,18.1499107 25.0034571,17.2497069 26.0363174,17.0602683 Z" id="Rectangle" fill="#555555" mask="url(#mask-2)"></path>
                <path d="M23.7440721,20.7670744 C31.5402933,19.5890248 39.5848552,19 47.8777578,19 C55.8945624,19 63.5231078,19.5835472 70.7633942,20.7506416 C71.6220669,20.889069 72.2533333,21.6302408 72.2533333,22.5 C72.2533333,23.2011406 71.6849466,23.7695274 70.983806,23.7695274 C70.9159983,23.7695274 70.8482997,23.7640948 70.7813682,23.7532295 C63.545569,22.5844098 55.918411,22 47.8998939,22 C39.5968034,22 31.5398611,22.5898714 23.7290669,23.7696142 C23.0278956,23.8754752 22.3736371,23.3929209 22.2677331,22.6917561 C22.2581468,22.6282872 22.2533333,22.5641888 22.2533333,22.5 C22.2533333,21.6331911 22.8869935,20.8965883 23.7440721,20.7670744 Z" id="Rectangle-Copy" fill="#353535" mask="url(#mask-2)"></path>
            </g>
        </g>
    </g>
</svg>