<?xml version="1.0" encoding="UTF-8"?>
<svg width="242px" height="324px" viewBox="0 0 242 324" version="1.1" xmlns="http://www.w3.org/2000/svg" xmlns:xlink="http://www.w3.org/1999/xlink">
    <!-- Generator: Sketch 63.1 (92452) - https://sketch.com -->
    <title>Character</title>
    <desc>Created with Sketch.</desc>
    <defs>
        <rect id="path-1" x="0" y="0" width="283.783927" height="338.415132" rx="8"></rect>
    </defs>
    <g id="Page-1" stroke="none" stroke-width="1" fill="none" fill-rule="evenodd">
        <g id="icon" transform="translate(-316.000000, -149.000000)">
            <g id="Group">
                <g id="foreground" transform="translate(245.000000, 134.000000)">
                    <g id="Character">
                        <g transform="translate(46.890709, 0.000000)">
                            <mask id="mask-2" fill="white">
                                <use xlink:href="#path-1"></use>
                            </mask>
                            <g id="Rectangle"></g>
                            <path d="M145.529065,15.2866649 L145.529148,15.306375 C160.557514,15.6386872 177.628716,20.1699941 189.128514,28.6673127 C209.411364,43.6545181 215.868035,68.3254167 222.750003,97.7010467 C225.93464,111.294648 240.125355,174.313215 265.322147,286.756748 L265.322147,286.756748 L145.355865,286.756748 C145.032527,274.885015 144.730419,263.394813 144.449541,252.286144 C144.376833,263.394057 144.300369,274.884426 144.220364,286.756748 L24.2640532,286.756748 C49.4587513,174.313215 63.6482865,111.294648 66.832659,97.7010467 C73.7140545,68.3254167 80.1701888,43.6545181 100.451352,28.6673127 C111.949264,20.1706817 128.748968,15.6394205 143.754757,15.3064558 L143.757111,15.2866649 C144.052255,15.2866649 144.348325,15.2883261 144.64526,15.2916466 C144.941002,15.2883093 145.235439,15.2866649 145.529065,15.2866649 Z" id="Combined-Shape" fill="#D8D8D8" mask="url(#mask-2)"></path>
                            <path d="M144.7931,18.4494231 C181.062296,18.4494231 210.464288,60.5672158 210.464288,112.522146 C210.464288,156.356026 189.535549,193.187697 161.211348,203.631001 L161.210897,218.811698 C161.210897,219.363983 160.763182,219.811698 160.210897,219.811698 L129.375303,219.811698 C128.823019,219.811698 128.375303,219.363983 128.375303,218.811698 L128.374852,203.631001 C100.050651,193.187697 79.1219128,156.356026 79.1219128,112.522146 C79.1219128,60.5672158 108.523905,18.4494231 144.7931,18.4494231 Z" id="Combined-Shape" fill="#FFC6A2" mask="url(#mask-2)"></path>
                            <path d="M142.946922,176.587335 C151.395169,176.587335 158.243826,169.996132 158.243826,161.86547 C158.243826,153.734809 151.588668,155.714638 143.140422,155.714638 C134.692175,155.714638 127.650019,153.734809 127.650019,161.86547 C127.650019,169.996132 134.498676,176.587335 142.946922,176.587335 Z" id="Oval" fill="#FF5252" mask="url(#mask-2)"></path>
                            <ellipse id="Oval" fill="#333435" mask="url(#mask-2)" cx="175.386907" cy="120.448377" rx="7.64845157" ry="7.64333243"></ellipse>
                            <ellipse id="Oval-Copy-4" fill="#333435" mask="url(#mask-2)" cx="111.034418" cy="120.448377" rx="7.64845157" ry="7.64333243"></ellipse>
                            <path d="M144.828154,558.22683 C174.751714,558.22683 201.659812,545.716502 220.285897,525.799063 C236.656172,508.293829 243.461003,324.542145 243.461003,299.058263 C243.461003,287.503029 244.771925,272.65508 241.194586,262.531947 C230.634322,232.648567 205.083533,210.115382 168.063166,201.487909 C159.656181,199.528689 153.923488,227.390593 144.828154,227.390593 C135.331136,227.390593 129.33434,199.260423 120.60218,201.487909 C80.3419406,211.757889 56.1930606,234.7699 47.1341087,265.377147 C44.3867236,274.659667 45.6559464,292.761723 45.6559464,303.29786 C45.6559464,325.49831 50.5958154,502.271109 63.3690517,518.755221 C81.9410591,542.722761 111.516073,558.22683 144.828154,558.22683 Z" id="Shirt-Grey" fill="#E3E1E2" mask="url(#mask-2)"></path>
                            <path d="M144.99823,558.22683 C175.272605,558.22683 197.42211,548.186297 216.266562,528.268858 C216.266562,482.59998 216.266562,281.839279 216.266562,224.654345 C203.676327,213.897543 187.598723,205.885926 168.505642,201.487909 C160.000096,199.528689 154.200195,227.390593 144.99823,227.390593 C135.389872,227.390593 129.322771,199.260423 120.488239,201.487909 C100.832525,206.443781 84.9725398,214.366806 72.7921597,224.678635 C72.7921597,296.640744 76.8916642,487.367528 76.8916642,528.268858 C95.6814041,552.236398 111.295608,558.22683 144.99823,558.22683 Z" id="Shirt-White" fill="#FFFFFF" mask="url(#mask-2)"></path>
                            <path d="M135.378636,557.699704 L151.307577,557.699704 C151.307577,352.254366 151.307577,243.639692 151.307577,231.855681 C164.140019,228.540133 173.540729,217.782589 173.540729,205.023725 C173.540729,203.458936 173.234967,201.190773 172.623443,198.219238 L161.28088,202.867041 C158.194565,210.912417 152.083245,214.935105 142.946922,214.935105 C133.8106,214.935105 128.004915,211.204139 125.529867,203.742206 L113.275835,198.199517 C112.660689,201.179475 112.353116,203.454212 112.353116,205.023725 C112.353116,218.043785 122.142662,228.979745 135.378636,232.049902 C135.378636,243.0919 135.378636,351.641834 135.378636,557.699704 Z" id="Shirt-F" fill="#D8D8D8" mask="url(#mask-2)"></path>
                            <path d="M145.575756,15.2866649 L145.575519,15.3021256 C160.621694,15.597798 177.759584,20.1315795 189.287297,28.6673127 C209.527879,43.6545181 215.971094,68.3254167 222.83872,97.7010467 C226.016721,111.294648 240.177863,174.313215 265.322147,286.756748 L265.322147,286.756748 L251.53394,286.756748 C215.027387,163.162231 193.119943,93.4520719 185.811608,77.6262705 C170.883734,74.1165909 158.922649,73.7932755 144.66082,73.7932755 L144.793053,73.7926649 L143.885862,73.7938941 C130.07832,73.8109425 118.338372,74.2021928 103.774593,77.6262705 C96.4662581,93.4520719 74.5588138,163.162231 38.0522604,286.756748 L24.2640532,286.756748 C49.4083373,174.313215 63.5694797,111.294648 66.7474804,97.7010467 C73.6151063,68.3254167 80.0583221,43.6545181 100.298904,28.6673127 C111.826617,20.1315795 128.964507,15.597798 144.010682,15.3021256 L144.010444,15.2866649 C144.270698,15.2866649 144.531674,15.2879619 144.793329,15.2905548 C145.055191,15.2879586 145.315833,15.2866649 145.575756,15.2866649 Z" id="Combined-Shape-Copy" fill="#FFFFFF" mask="url(#mask-2)"></path>
                            <rect id="Rectangle" fill="#3E3E3E" mask="url(#mask-2)" x="158.243826" y="94.355621" width="33.7586828" height="8.96114836" rx="4.48057418"></rect>
                            <rect id="Rectangle-Copy-2" fill="#3E3E3E" mask="url(#mask-2)" x="97.056213" y="94.355621" width="33.7586828" height="8.96114836" rx="4.48057418"></rect>
                            <path d="M82.2867893,143.378374 L88.4909483,143.378374 L88.4909483,143.378374 C88.4909483,148.65907 89.2102317,153.046805 93.4963845,159.798495 C113.144914,177.713948 126.623598,182.307199 143.876013,182.397273 L144.399979,182.398633 C162.126271,182.398633 175.849695,177.894912 195.947923,159.798495 C200.28833,153.046805 201.016719,148.65907 201.016719,143.378374 L201.016719,143.378374 L207.299411,143.378374 C207.299411,172.909212 186.660393,205.580696 144.399979,207.160665 L144.399979,207.160665 C102.66782,205.580696 82.2867893,172.909212 82.2867893,143.378374 Z" id="Combined-Shape" fill="#3E3E3E" mask="url(#mask-2)"></path>
                            <rect id="Rectangle" fill="#FFB08B" mask="url(#mask-2)" x="140.309525" y="131.254467" width="8.96715011" height="18.4494231" rx="4.48357506"></rect>
                            <path d="M143.474402,158.665039 L179.870482,158.665039 C175.379157,152.69094 170.312546,149.70389 164.670648,149.70389 C159.02875,149.70389 152.029307,149.70389 143.67232,149.70389 L143.474402,158.665039 Z" id="Path-6" fill="#3E3E3E" mask="url(#mask-2)"></path>
                            <path d="M109.715719,158.665039 L146.111799,158.665039 C141.620475,152.69094 136.553863,149.70389 130.911965,149.70389 C125.270067,149.70389 118.270624,149.70389 109.913637,149.70389 L109.715719,158.665039 Z" id="Path-6-Copy" fill="#3E3E3E" mask="url(#mask-2)" transform="translate(127.913759, 154.184464) scale(-1, 1) translate(-127.913759, -154.184464) "></path>
                            <path d="M78.2741025,52.1878966 C101.123131,47.9692952 123.780591,45.8599946 146.246482,45.8599946 C167.950147,45.8599946 189.464274,47.9469363 210.788863,52.1208199 C213.970882,52.7436196 216.266562,55.5321956 216.266562,58.7745907 C216.266562,61.2692412 214.244248,63.291555 211.749597,63.291555 C211.457631,63.291555 211.166353,63.2632472 210.87985,63.2070344 C189.552464,59.0221104 168.028299,56.9296484 146.307354,56.9296484 C123.802789,56.9296484 101.099379,59.0440614 78.1971259,63.2728874 C75.7127733,63.7316486 73.3269296,62.0895511 72.868201,59.6051925 C72.8176126,59.3312186 72.7921597,59.0531959 72.7921597,58.7745907 C72.7921597,55.5443896 75.097584,52.7743519 78.2741025,52.1878966 Z" id="Rectangle" fill="#555555" mask="url(#mask-2)"></path>
                            <path d="M71.5474562,63.384533 C95.3128974,59.7841118 119.835221,57.9839012 145.114427,57.9839012 C169.551667,57.9839012 192.805621,59.7673217 214.876288,63.3341626 C217.501745,63.7584575 219.431438,66.0250458 219.431438,68.6845666 C219.431438,70.8271373 217.694541,72.5640341 215.551971,72.5640341 C215.344234,72.5640341 215.136832,72.5473484 214.931761,72.5141783 C192.874571,68.9419928 169.624622,67.1559001 145.181916,67.1559001 C119.871534,67.1559001 95.3113586,68.9587154 71.5013904,72.5643459 C69.3586625,72.8887886 67.3585997,71.4148123 67.0341194,69.2720901 C67.0046722,69.0776341 66.9898861,68.8812395 66.9898861,68.6845666 C66.9898861,66.0341085 68.9268999,63.7815379 71.5474562,63.384533 Z" id="Rectangle-Copy" fill="#353535" mask="url(#mask-2)"></path>
                        </g>
                    </g>
                </g>
            </g>
        </g>
    </g>
</svg>